<mxfile host="65bd71144e" pages="2">
    <diagram id="C5RBs43oDa-KdzZeNtuy" name="Class">
        <mxGraphModel dx="2381" dy="970" grid="1" gridSize="10" guides="1" tooltips="1" connect="1" arrows="1" fold="1" page="1" pageScale="1" pageWidth="827" pageHeight="1169" math="0" shadow="0">
            <root>
                <mxCell id="WIyWlLk6GJQsqaUBKTNV-0"/>
                <mxCell id="WIyWlLk6GJQsqaUBKTNV-1" parent="WIyWlLk6GJQsqaUBKTNV-0"/>
                <mxCell id="EkLB9ta38baTP0wRSEzG-8" style="edgeStyle=none;curved=1;rounded=0;orthogonalLoop=1;jettySize=auto;html=1;exitX=1;exitY=0.5;exitDx=0;exitDy=0;entryX=0;entryY=0.5;entryDx=0;entryDy=0;fontSize=12;startSize=8;endSize=8;endArrow=none;endFill=0;" parent="WIyWlLk6GJQsqaUBKTNV-1" source="EkLB9ta38baTP0wRSEzG-0" target="EkLB9ta38baTP0wRSEzG-4" edge="1">
                    <mxGeometry relative="1" as="geometry"/>
                </mxCell>
                <mxCell id="EkLB9ta38baTP0wRSEzG-16" value="0..1" style="edgeLabel;html=1;align=center;verticalAlign=middle;resizable=0;points=[];fontSize=16;" parent="EkLB9ta38baTP0wRSEzG-8" vertex="1" connectable="0">
                    <mxGeometry x="0.8" relative="1" as="geometry">
                        <mxPoint y="-15" as="offset"/>
                    </mxGeometry>
                </mxCell>
                <mxCell id="EkLB9ta38baTP0wRSEzG-17" value="1" style="edgeLabel;html=1;align=center;verticalAlign=middle;resizable=0;points=[];fontSize=16;" parent="EkLB9ta38baTP0wRSEzG-8" vertex="1" connectable="0">
                    <mxGeometry x="-0.8429" y="-2" relative="1" as="geometry">
                        <mxPoint x="-1" y="-17" as="offset"/>
                    </mxGeometry>
                </mxCell>
                <mxCell id="EkLB9ta38baTP0wRSEzG-9" style="edgeStyle=none;curved=1;rounded=0;orthogonalLoop=1;jettySize=auto;html=1;exitX=0.5;exitY=0;exitDx=0;exitDy=0;entryX=0.5;entryY=1;entryDx=0;entryDy=0;fontSize=12;startSize=8;endSize=8;endArrow=none;endFill=0;" parent="WIyWlLk6GJQsqaUBKTNV-1" source="EkLB9ta38baTP0wRSEzG-0" target="EkLB9ta38baTP0wRSEzG-1" edge="1">
                    <mxGeometry relative="1" as="geometry"/>
                </mxCell>
                <mxCell id="EkLB9ta38baTP0wRSEzG-20" value="1..n" style="edgeLabel;html=1;align=center;verticalAlign=middle;resizable=0;points=[];fontSize=16;" parent="EkLB9ta38baTP0wRSEzG-9" vertex="1" connectable="0">
                    <mxGeometry x="0.7333" y="-1" relative="1" as="geometry">
                        <mxPoint x="24" as="offset"/>
                    </mxGeometry>
                </mxCell>
                <mxCell id="EkLB9ta38baTP0wRSEzG-21" value="0..n" style="edgeLabel;html=1;align=center;verticalAlign=middle;resizable=0;points=[];fontSize=16;" parent="EkLB9ta38baTP0wRSEzG-9" vertex="1" connectable="0">
                    <mxGeometry x="-0.7333" y="-2" relative="1" as="geometry">
                        <mxPoint x="23" as="offset"/>
                    </mxGeometry>
                </mxCell>
                <mxCell id="EkLB9ta38baTP0wRSEzG-0" value="Reserva" style="html=1;whiteSpace=wrap;fontSize=16;" parent="WIyWlLk6GJQsqaUBKTNV-1" vertex="1">
                    <mxGeometry x="234" y="260" width="110" height="50" as="geometry"/>
                </mxCell>
                <mxCell id="EkLB9ta38baTP0wRSEzG-10" style="edgeStyle=orthogonalEdgeStyle;rounded=0;orthogonalLoop=1;jettySize=auto;html=1;exitX=1;exitY=0.5;exitDx=0;exitDy=0;entryX=0.5;entryY=0;entryDx=0;entryDy=0;fontSize=12;startSize=8;endSize=8;endArrow=none;endFill=0;" parent="WIyWlLk6GJQsqaUBKTNV-1" source="EkLB9ta38baTP0wRSEzG-1" target="EkLB9ta38baTP0wRSEzG-4" edge="1">
                    <mxGeometry relative="1" as="geometry"/>
                </mxCell>
                <mxCell id="EkLB9ta38baTP0wRSEzG-18" value="1" style="edgeLabel;html=1;align=center;verticalAlign=middle;resizable=0;points=[];fontSize=16;" parent="EkLB9ta38baTP0wRSEzG-10" vertex="1" connectable="0">
                    <mxGeometry x="-0.929" relative="1" as="geometry">
                        <mxPoint y="-15" as="offset"/>
                    </mxGeometry>
                </mxCell>
                <mxCell id="EkLB9ta38baTP0wRSEzG-19" value="0..1" style="edgeLabel;html=1;align=center;verticalAlign=middle;resizable=0;points=[];fontSize=16;" parent="EkLB9ta38baTP0wRSEzG-10" vertex="1" connectable="0">
                    <mxGeometry x="0.8903" relative="1" as="geometry">
                        <mxPoint x="15" y="7" as="offset"/>
                    </mxGeometry>
                </mxCell>
                <mxCell id="EkLB9ta38baTP0wRSEzG-1" value="Comensal" style="html=1;whiteSpace=wrap;fontSize=16;" parent="WIyWlLk6GJQsqaUBKTNV-1" vertex="1">
                    <mxGeometry x="234" y="120" width="110" height="50" as="geometry"/>
                </mxCell>
                <mxCell id="EkLB9ta38baTP0wRSEzG-27" style="edgeStyle=orthogonalEdgeStyle;rounded=0;orthogonalLoop=1;jettySize=auto;html=1;exitX=0.5;exitY=0;exitDx=0;exitDy=0;entryX=0.5;entryY=1;entryDx=0;entryDy=0;fontSize=12;startSize=8;endSize=8;endArrow=none;endFill=0;" parent="WIyWlLk6GJQsqaUBKTNV-1" source="EkLB9ta38baTP0wRSEzG-2" target="EkLB9ta38baTP0wRSEzG-3" edge="1">
                    <mxGeometry relative="1" as="geometry"/>
                </mxCell>
                <mxCell id="EkLB9ta38baTP0wRSEzG-28" value="1" style="edgeLabel;html=1;align=center;verticalAlign=middle;resizable=0;points=[];fontSize=16;" parent="EkLB9ta38baTP0wRSEzG-27" vertex="1" connectable="0">
                    <mxGeometry x="-0.9071" y="-2" relative="1" as="geometry">
                        <mxPoint as="offset"/>
                    </mxGeometry>
                </mxCell>
                <mxCell id="EkLB9ta38baTP0wRSEzG-29" value="0..n" style="edgeLabel;html=1;align=center;verticalAlign=middle;resizable=0;points=[];fontSize=16;" parent="EkLB9ta38baTP0wRSEzG-27" vertex="1" connectable="0">
                    <mxGeometry x="0.9571" y="1" relative="1" as="geometry">
                        <mxPoint x="22" y="4" as="offset"/>
                    </mxGeometry>
                </mxCell>
                <mxCell id="OMDFZ7N9RNwYcGZIL3JT-1" style="edgeStyle=none;curved=1;rounded=0;orthogonalLoop=1;jettySize=auto;html=1;exitX=1;exitY=0.5;exitDx=0;exitDy=0;entryX=0;entryY=0.5;entryDx=0;entryDy=0;fontSize=12;startSize=8;endSize=8;endArrow=none;endFill=0;" parent="WIyWlLk6GJQsqaUBKTNV-1" source="EkLB9ta38baTP0wRSEzG-2" target="OMDFZ7N9RNwYcGZIL3JT-0" edge="1">
                    <mxGeometry relative="1" as="geometry"/>
                </mxCell>
                <mxCell id="OMDFZ7N9RNwYcGZIL3JT-2" value="1" style="edgeLabel;html=1;align=center;verticalAlign=middle;resizable=0;points=[];fontSize=16;" parent="OMDFZ7N9RNwYcGZIL3JT-1" vertex="1" connectable="0">
                    <mxGeometry x="-0.776" y="1" relative="1" as="geometry">
                        <mxPoint x="-3" y="-9" as="offset"/>
                    </mxGeometry>
                </mxCell>
                <mxCell id="OMDFZ7N9RNwYcGZIL3JT-3" value="0..n" style="edgeLabel;html=1;align=center;verticalAlign=middle;resizable=0;points=[];fontSize=16;" parent="OMDFZ7N9RNwYcGZIL3JT-1" vertex="1" connectable="0">
                    <mxGeometry x="0.744" y="-1" relative="1" as="geometry">
                        <mxPoint y="-11" as="offset"/>
                    </mxGeometry>
                </mxCell>
                <mxCell id="EkLB9ta38baTP0wRSEzG-2" value="Restaurante" style="html=1;whiteSpace=wrap;fontSize=16;" parent="WIyWlLk6GJQsqaUBKTNV-1" vertex="1">
                    <mxGeometry x="359" y="585" width="110" height="50" as="geometry"/>
                </mxCell>
                <mxCell id="EkLB9ta38baTP0wRSEzG-26" style="edgeStyle=none;curved=1;rounded=0;orthogonalLoop=1;jettySize=auto;html=1;exitX=1;exitY=0.5;exitDx=0;exitDy=0;fontSize=12;startSize=8;endSize=8;endArrow=none;endFill=0;" parent="WIyWlLk6GJQsqaUBKTNV-1" source="EkLB9ta38baTP0wRSEzG-3" target="EkLB9ta38baTP0wRSEzG-25" edge="1">
                    <mxGeometry relative="1" as="geometry"/>
                </mxCell>
                <mxCell id="EkLB9ta38baTP0wRSEzG-30" value="1" style="edgeLabel;html=1;align=center;verticalAlign=middle;resizable=0;points=[];fontSize=16;" parent="EkLB9ta38baTP0wRSEzG-26" vertex="1" connectable="0">
                    <mxGeometry x="-0.7857" y="-1" relative="1" as="geometry">
                        <mxPoint x="-9" y="-16" as="offset"/>
                    </mxGeometry>
                </mxCell>
                <mxCell id="EkLB9ta38baTP0wRSEzG-31" value="0..n" style="edgeLabel;html=1;align=center;verticalAlign=middle;resizable=0;points=[];fontSize=16;" parent="EkLB9ta38baTP0wRSEzG-26" vertex="1" connectable="0">
                    <mxGeometry x="0.7571" relative="1" as="geometry">
                        <mxPoint y="-15" as="offset"/>
                    </mxGeometry>
                </mxCell>
                <mxCell id="EkLB9ta38baTP0wRSEzG-3" value="Zona" style="html=1;whiteSpace=wrap;fontSize=16;" parent="WIyWlLk6GJQsqaUBKTNV-1" vertex="1">
                    <mxGeometry x="234" y="380" width="110" height="50" as="geometry"/>
                </mxCell>
                <mxCell id="EkLB9ta38baTP0wRSEzG-4" value="Ticket" style="html=1;whiteSpace=wrap;fontSize=16;" parent="WIyWlLk6GJQsqaUBKTNV-1" vertex="1">
                    <mxGeometry x="484" y="260" width="110" height="50" as="geometry"/>
                </mxCell>
                <mxCell id="EkLB9ta38baTP0wRSEzG-25" value="Mesa" style="html=1;whiteSpace=wrap;fontSize=16;" parent="WIyWlLk6GJQsqaUBKTNV-1" vertex="1">
                    <mxGeometry x="484" y="380" width="110" height="50" as="geometry"/>
                </mxCell>
                <mxCell id="EkLB9ta38baTP0wRSEzG-32" style="edgeStyle=orthogonalEdgeStyle;rounded=0;orthogonalLoop=1;jettySize=auto;html=1;exitX=0.5;exitY=1;exitDx=0;exitDy=0;entryX=0.573;entryY=-0.04;entryDx=0;entryDy=0;entryPerimeter=0;fontSize=12;startSize=8;endSize=8;endArrow=none;endFill=0;" parent="WIyWlLk6GJQsqaUBKTNV-1" source="EkLB9ta38baTP0wRSEzG-0" target="EkLB9ta38baTP0wRSEzG-25" edge="1">
                    <mxGeometry relative="1" as="geometry"/>
                </mxCell>
                <mxCell id="EkLB9ta38baTP0wRSEzG-33" value="1" style="edgeLabel;html=1;align=center;verticalAlign=middle;resizable=0;points=[];fontSize=16;" parent="EkLB9ta38baTP0wRSEzG-32" vertex="1" connectable="0">
                    <mxGeometry x="0.9264" y="-1" relative="1" as="geometry">
                        <mxPoint x="14" y="4" as="offset"/>
                    </mxGeometry>
                </mxCell>
                <mxCell id="EkLB9ta38baTP0wRSEzG-34" value="0..n" style="edgeLabel;html=1;align=center;verticalAlign=middle;resizable=0;points=[];fontSize=16;" parent="EkLB9ta38baTP0wRSEzG-32" vertex="1" connectable="0">
                    <mxGeometry x="-0.9632" y="3" relative="1" as="geometry">
                        <mxPoint x="-22" y="4" as="offset"/>
                    </mxGeometry>
                </mxCell>
                <mxCell id="OMDFZ7N9RNwYcGZIL3JT-4" style="edgeStyle=orthogonalEdgeStyle;rounded=0;orthogonalLoop=1;jettySize=auto;html=1;exitX=0.5;exitY=0;exitDx=0;exitDy=0;entryX=1;entryY=0.5;entryDx=0;entryDy=0;fontSize=12;startSize=8;endSize=8;endArrow=none;endFill=0;" parent="WIyWlLk6GJQsqaUBKTNV-1" source="OMDFZ7N9RNwYcGZIL3JT-0" target="EkLB9ta38baTP0wRSEzG-25" edge="1">
                    <mxGeometry relative="1" as="geometry"/>
                </mxCell>
                <mxCell id="OMDFZ7N9RNwYcGZIL3JT-5" value="0..n" style="edgeLabel;html=1;align=center;verticalAlign=middle;resizable=0;points=[];fontSize=16;" parent="OMDFZ7N9RNwYcGZIL3JT-4" vertex="1" connectable="0">
                    <mxGeometry x="0.8723" relative="1" as="geometry">
                        <mxPoint y="-15" as="offset"/>
                    </mxGeometry>
                </mxCell>
                <mxCell id="OMDFZ7N9RNwYcGZIL3JT-6" value="1..n" style="edgeLabel;html=1;align=center;verticalAlign=middle;resizable=0;points=[];fontSize=16;" parent="OMDFZ7N9RNwYcGZIL3JT-4" vertex="1" connectable="0">
                    <mxGeometry x="-0.8553" y="-2" relative="1" as="geometry">
                        <mxPoint x="19" y="2" as="offset"/>
                    </mxGeometry>
                </mxCell>
                <mxCell id="OMDFZ7N9RNwYcGZIL3JT-0" value="Camarero" style="html=1;whiteSpace=wrap;fontSize=16;" parent="WIyWlLk6GJQsqaUBKTNV-1" vertex="1">
                    <mxGeometry x="594" y="585" width="110" height="50" as="geometry"/>
                </mxCell>
            </root>
        </mxGraphModel>
    </diagram>
    <diagram id="erAHdIHQa3x4-7vyZpu6" name="UseCase">
        <mxGraphModel dx="2856" dy="1370" grid="0" gridSize="10" guides="1" tooltips="1" connect="1" arrows="0" fold="1" page="0" pageScale="1" pageWidth="827" pageHeight="1169" math="0" shadow="0">
            <root>
                <mxCell id="0"/>
                <mxCell id="1" parent="0"/>
                <mxCell id="LYXGkDE8hxfl4SKyt4XY-6" style="edgeStyle=none;curved=1;rounded=0;orthogonalLoop=1;jettySize=auto;html=1;exitX=0.5;exitY=0.5;exitDx=0;exitDy=0;exitPerimeter=0;entryX=1;entryY=0.5;entryDx=0;entryDy=0;fontSize=12;startSize=8;endSize=8;endArrow=none;endFill=0;" parent="1" source="P4WgWhsRx0VuXNSD5w6V-1" target="LYXGkDE8hxfl4SKyt4XY-3" edge="1">
                    <mxGeometry relative="1" as="geometry"/>
                </mxCell>
                <mxCell id="LYXGkDE8hxfl4SKyt4XY-7" style="edgeStyle=none;curved=1;rounded=0;orthogonalLoop=1;jettySize=auto;html=1;exitX=0.5;exitY=0.5;exitDx=0;exitDy=0;exitPerimeter=0;entryX=1;entryY=0.5;entryDx=0;entryDy=0;fontSize=12;startSize=8;endSize=8;endArrow=none;endFill=0;" parent="1" source="P4WgWhsRx0VuXNSD5w6V-1" target="LYXGkDE8hxfl4SKyt4XY-2" edge="1">
                    <mxGeometry relative="1" as="geometry"/>
                </mxCell>
                <mxCell id="LYXGkDE8hxfl4SKyt4XY-8" style="edgeStyle=none;curved=1;rounded=0;orthogonalLoop=1;jettySize=auto;html=1;exitX=0.5;exitY=0.5;exitDx=0;exitDy=0;exitPerimeter=0;entryX=1;entryY=0.5;entryDx=0;entryDy=0;fontSize=12;startSize=8;endSize=8;endArrow=none;endFill=0;" parent="1" source="P4WgWhsRx0VuXNSD5w6V-1" target="LYXGkDE8hxfl4SKyt4XY-5" edge="1">
                    <mxGeometry relative="1" as="geometry"/>
                </mxCell>
                <mxCell id="OANpe9epuxXBcD9a5ZMN-16" style="edgeStyle=none;html=1;exitX=0.5;exitY=0;exitDx=0;exitDy=0;exitPerimeter=0;entryX=0.5;entryY=0;entryDx=0;entryDy=0;entryPerimeter=0;endArrow=block;endFill=0;endSize=12;" edge="1" parent="1" source="P4WgWhsRx0VuXNSD5w6V-1" target="bIkSfp_ppsjiceqQSNj0-4">
                    <mxGeometry relative="1" as="geometry"/>
                </mxCell>
                <mxCell id="P4WgWhsRx0VuXNSD5w6V-1" value="Restaurante_administrador" style="shape=umlActor;verticalLabelPosition=bottom;verticalAlign=top;html=1;fontSize=16;rounded=0;" parent="1" vertex="1">
                    <mxGeometry x="602" y="-264" width="30" height="60" as="geometry"/>
                </mxCell>
                <mxCell id="LYXGkDE8hxfl4SKyt4XY-12" style="edgeStyle=none;curved=1;rounded=0;orthogonalLoop=1;jettySize=auto;html=1;exitX=0.5;exitY=0.5;exitDx=0;exitDy=0;exitPerimeter=0;entryX=0;entryY=0.5;entryDx=0;entryDy=0;fontSize=12;startSize=8;endSize=8;endArrow=none;endFill=0;" parent="1" source="bIkSfp_ppsjiceqQSNj0-4" target="LYXGkDE8hxfl4SKyt4XY-11" edge="1">
                    <mxGeometry relative="1" as="geometry"/>
                </mxCell>
                <mxCell id="bIkSfp_ppsjiceqQSNj0-4" value="Camarero" style="shape=umlActor;verticalLabelPosition=bottom;verticalAlign=top;html=1;outlineConnect=0;fontSize=16;rounded=0;" parent="1" vertex="1">
                    <mxGeometry x="-456" y="-151" width="30" height="60" as="geometry"/>
                </mxCell>
                <mxCell id="wAQsyR-04KVuGuFCgq3Q-1" value="Backoffice" style="shape=umlFrame;whiteSpace=wrap;html=1;pointerEvents=0;recursiveResize=0;container=1;collapsible=0;width=160;fontSize=16;rounded=0;" parent="1" vertex="1">
                    <mxGeometry x="-54" y="-127" width="340" height="901" as="geometry"/>
                </mxCell>
                <mxCell id="wAQsyR-04KVuGuFCgq3Q-2" value="Asignar camarero a una mesa" style="ellipse;html=1;whiteSpace=wrap;fontSize=16;rounded=0;" parent="wAQsyR-04KVuGuFCgq3Q-1" vertex="1">
                    <mxGeometry x="58.5" y="40" width="223" height="38" as="geometry"/>
                </mxCell>
                <mxCell id="J6ed8K2xbNNyXTb1UdcD-2" value="Asignarse a una mesa" style="ellipse;html=1;whiteSpace=wrap;fontSize=16;rounded=0;" parent="wAQsyR-04KVuGuFCgq3Q-1" vertex="1">
                    <mxGeometry x="58.5" y="81" width="223" height="33" as="geometry"/>
                </mxCell>
                <mxCell id="YsWzEeys4IaxDCjWVYEm-2" value="Generar nueva reserva (Persona que llama)" style="ellipse;html=1;whiteSpace=wrap;fontSize=16;rounded=0;" parent="wAQsyR-04KVuGuFCgq3Q-1" vertex="1">
                    <mxGeometry x="58.5" y="132" width="223" height="47" as="geometry"/>
                </mxCell>
                <mxCell id="LYXGkDE8hxfl4SKyt4XY-3" value="Crear camarero" style="ellipse;html=1;whiteSpace=wrap;fontSize=16;rounded=0;" parent="wAQsyR-04KVuGuFCgq3Q-1" vertex="1">
                    <mxGeometry x="58.5" y="195" width="223" height="26" as="geometry"/>
                </mxCell>
                <mxCell id="LYXGkDE8hxfl4SKyt4XY-2" value="Eliminar camarero" style="ellipse;html=1;whiteSpace=wrap;fontSize=16;rounded=0;" parent="wAQsyR-04KVuGuFCgq3Q-1" vertex="1">
                    <mxGeometry x="58.5" y="223" width="223" height="28" as="geometry"/>
                </mxCell>
                <mxCell id="LYXGkDE8hxfl4SKyt4XY-4" style="edgeStyle=none;curved=1;rounded=0;orthogonalLoop=1;jettySize=auto;html=1;exitX=0.5;exitY=1;exitDx=0;exitDy=0;fontSize=12;startSize=8;endSize=8;" parent="wAQsyR-04KVuGuFCgq3Q-1" source="LYXGkDE8hxfl4SKyt4XY-3" target="LYXGkDE8hxfl4SKyt4XY-3" edge="1">
                    <mxGeometry relative="1" as="geometry"/>
                </mxCell>
                <mxCell id="LYXGkDE8hxfl4SKyt4XY-5" value="Actualizar camarero" style="ellipse;html=1;whiteSpace=wrap;fontSize=16;rounded=0;" parent="wAQsyR-04KVuGuFCgq3Q-1" vertex="1">
                    <mxGeometry x="58.5" y="255" width="223" height="28" as="geometry"/>
                </mxCell>
                <mxCell id="LYXGkDE8hxfl4SKyt4XY-11" value="Actualizarse su perfil" style="ellipse;html=1;whiteSpace=wrap;fontSize=16;rounded=0;" parent="wAQsyR-04KVuGuFCgq3Q-1" vertex="1">
                    <mxGeometry x="65" y="287" width="223" height="28" as="geometry"/>
                </mxCell>
                <mxCell id="OANpe9epuxXBcD9a5ZMN-1" value="Actualizar reserva" style="ellipse;html=1;whiteSpace=wrap;fontSize=16;rounded=0;" vertex="1" parent="wAQsyR-04KVuGuFCgq3Q-1">
                    <mxGeometry x="64" y="328" width="223" height="28" as="geometry"/>
                </mxCell>
                <mxCell id="OANpe9epuxXBcD9a5ZMN-2" value="Eliminar reserva" style="ellipse;html=1;whiteSpace=wrap;fontSize=16;rounded=0;" vertex="1" parent="wAQsyR-04KVuGuFCgq3Q-1">
                    <mxGeometry x="66" y="356" width="223" height="28" as="geometry"/>
                </mxCell>
                <mxCell id="OANpe9epuxXBcD9a5ZMN-3" value="Listar reservas por fecha" style="ellipse;html=1;whiteSpace=wrap;fontSize=16;rounded=0;" vertex="1" parent="wAQsyR-04KVuGuFCgq3Q-1">
                    <mxGeometry x="64" y="417" width="223" height="28" as="geometry"/>
                </mxCell>
                <mxCell id="OANpe9epuxXBcD9a5ZMN-4" value="Ver detalles de reserva" style="ellipse;html=1;whiteSpace=wrap;fontSize=16;rounded=0;" vertex="1" parent="wAQsyR-04KVuGuFCgq3Q-1">
                    <mxGeometry x="66" y="386" width="223" height="28" as="geometry"/>
                </mxCell>
                <mxCell id="OANpe9epuxXBcD9a5ZMN-18" value="Login" style="ellipse;html=1;whiteSpace=wrap;fontSize=16;rounded=0;" vertex="1" parent="wAQsyR-04KVuGuFCgq3Q-1">
                    <mxGeometry x="66" y="458" width="223" height="28" as="geometry"/>
                </mxCell>
                <mxCell id="OANpe9epuxXBcD9a5ZMN-19" value="Logout" style="ellipse;html=1;whiteSpace=wrap;fontSize=16;rounded=0;" vertex="1" parent="wAQsyR-04KVuGuFCgq3Q-1">
                    <mxGeometry x="64" y="491" width="223" height="28" as="geometry"/>
                </mxCell>
                <mxCell id="OANpe9epuxXBcD9a5ZMN-22" value="Añadir sala" style="ellipse;html=1;whiteSpace=wrap;fontSize=16;rounded=0;" vertex="1" parent="wAQsyR-04KVuGuFCgq3Q-1">
                    <mxGeometry x="66" y="535" width="223" height="28" as="geometry"/>
                </mxCell>
                <mxCell id="OANpe9epuxXBcD9a5ZMN-23" value="Eliminar sala" style="ellipse;html=1;whiteSpace=wrap;fontSize=16;rounded=0;" vertex="1" parent="wAQsyR-04KVuGuFCgq3Q-1">
                    <mxGeometry x="66" y="569" width="223" height="28" as="geometry"/>
                </mxCell>
                <mxCell id="OANpe9epuxXBcD9a5ZMN-24" value="Editar sala" style="ellipse;html=1;whiteSpace=wrap;fontSize=16;rounded=0;" vertex="1" parent="wAQsyR-04KVuGuFCgq3Q-1">
                    <mxGeometry x="64" y="603" width="223" height="28" as="geometry"/>
                </mxCell>
                <mxCell id="OANpe9epuxXBcD9a5ZMN-25" value="Añadir mesa a sala" style="ellipse;html=1;whiteSpace=wrap;fontSize=16;rounded=0;" vertex="1" parent="wAQsyR-04KVuGuFCgq3Q-1">
                    <mxGeometry x="66" y="637" width="223" height="28" as="geometry"/>
                </mxCell>
                <mxCell id="OANpe9epuxXBcD9a5ZMN-26" value="Editar mesa" style="ellipse;html=1;whiteSpace=wrap;fontSize=16;rounded=0;" vertex="1" parent="wAQsyR-04KVuGuFCgq3Q-1">
                    <mxGeometry x="66" y="671" width="223" height="28" as="geometry"/>
                </mxCell>
                <mxCell id="OANpe9epuxXBcD9a5ZMN-27" value="Eliminar mesa" style="ellipse;html=1;whiteSpace=wrap;fontSize=16;rounded=0;" vertex="1" parent="wAQsyR-04KVuGuFCgq3Q-1">
                    <mxGeometry x="66" y="705" width="223" height="28" as="geometry"/>
                </mxCell>
                <mxCell id="J6ed8K2xbNNyXTb1UdcD-1" style="edgeStyle=none;curved=1;rounded=0;orthogonalLoop=1;jettySize=auto;html=1;exitX=1;exitY=0.5;exitDx=0;exitDy=0;fontSize=12;startSize=8;endSize=8;endArrow=none;endFill=0;entryX=0.456;entryY=0.239;entryDx=0;entryDy=0;entryPerimeter=0;" parent="1" source="wAQsyR-04KVuGuFCgq3Q-2" target="P4WgWhsRx0VuXNSD5w6V-1" edge="1">
                    <mxGeometry relative="1" as="geometry"/>
                </mxCell>
                <mxCell id="J6ed8K2xbNNyXTb1UdcD-3" style="edgeStyle=none;curved=1;rounded=0;orthogonalLoop=1;jettySize=auto;html=1;exitX=0;exitY=0.5;exitDx=0;exitDy=0;fontSize=12;startSize=8;endSize=8;endArrow=none;endFill=0;" parent="1" source="J6ed8K2xbNNyXTb1UdcD-2" target="bIkSfp_ppsjiceqQSNj0-4" edge="1">
                    <mxGeometry relative="1" as="geometry"/>
                </mxCell>
                <mxCell id="YsWzEeys4IaxDCjWVYEm-4" style="edgeStyle=none;curved=1;rounded=0;orthogonalLoop=1;jettySize=auto;html=1;exitX=0;exitY=0.5;exitDx=0;exitDy=0;fontSize=12;startSize=8;endSize=8;endArrow=none;endFill=0;" parent="1" source="YsWzEeys4IaxDCjWVYEm-2" target="bIkSfp_ppsjiceqQSNj0-4" edge="1">
                    <mxGeometry relative="1" as="geometry"/>
                </mxCell>
                <mxCell id="OANpe9epuxXBcD9a5ZMN-6" style="edgeStyle=none;html=1;exitX=0;exitY=0.5;exitDx=0;exitDy=0;entryX=0.5;entryY=0.5;entryDx=0;entryDy=0;entryPerimeter=0;endArrow=none;endFill=0;" edge="1" parent="1" source="OANpe9epuxXBcD9a5ZMN-1" target="bIkSfp_ppsjiceqQSNj0-4">
                    <mxGeometry relative="1" as="geometry"/>
                </mxCell>
                <mxCell id="OANpe9epuxXBcD9a5ZMN-10" style="edgeStyle=none;html=1;exitX=0;exitY=0.5;exitDx=0;exitDy=0;endArrow=none;endFill=0;" edge="1" parent="1" source="OANpe9epuxXBcD9a5ZMN-2" target="bIkSfp_ppsjiceqQSNj0-4">
                    <mxGeometry relative="1" as="geometry"/>
                </mxCell>
                <mxCell id="OANpe9epuxXBcD9a5ZMN-11" style="edgeStyle=none;html=1;exitX=0;exitY=0.5;exitDx=0;exitDy=0;endArrow=none;endFill=0;" edge="1" parent="1" source="OANpe9epuxXBcD9a5ZMN-4" target="bIkSfp_ppsjiceqQSNj0-4">
                    <mxGeometry relative="1" as="geometry"/>
                </mxCell>
                <mxCell id="OANpe9epuxXBcD9a5ZMN-15" style="edgeStyle=none;html=1;exitX=0;exitY=0.5;exitDx=0;exitDy=0;endArrow=none;endFill=0;" edge="1" parent="1" source="OANpe9epuxXBcD9a5ZMN-3" target="bIkSfp_ppsjiceqQSNj0-4">
                    <mxGeometry relative="1" as="geometry"/>
                </mxCell>
                <mxCell id="OANpe9epuxXBcD9a5ZMN-20" style="edgeStyle=none;html=1;exitX=0;exitY=0.5;exitDx=0;exitDy=0;entryX=0.5;entryY=0.5;entryDx=0;entryDy=0;entryPerimeter=0;endArrow=none;endFill=0;endSize=12;" edge="1" parent="1" source="OANpe9epuxXBcD9a5ZMN-18" target="bIkSfp_ppsjiceqQSNj0-4">
                    <mxGeometry relative="1" as="geometry"/>
                </mxCell>
                <mxCell id="OANpe9epuxXBcD9a5ZMN-21" style="edgeStyle=none;html=1;exitX=0;exitY=0.5;exitDx=0;exitDy=0;endArrow=none;endFill=0;endSize=12;entryX=0.5;entryY=0.5;entryDx=0;entryDy=0;entryPerimeter=0;" edge="1" parent="1" source="OANpe9epuxXBcD9a5ZMN-19" target="bIkSfp_ppsjiceqQSNj0-4">
                    <mxGeometry relative="1" as="geometry">
                        <mxPoint x="-209.32568359375" y="331.5026092529297" as="targetPoint"/>
                    </mxGeometry>
                </mxCell>
                <mxCell id="OANpe9epuxXBcD9a5ZMN-28" style="edgeStyle=none;html=1;exitX=1;exitY=0.5;exitDx=0;exitDy=0;entryX=0.5;entryY=0.5;entryDx=0;entryDy=0;entryPerimeter=0;endArrow=none;endFill=0;endSize=12;" edge="1" parent="1" source="OANpe9epuxXBcD9a5ZMN-22" target="P4WgWhsRx0VuXNSD5w6V-1">
                    <mxGeometry relative="1" as="geometry"/>
                </mxCell>
                <mxCell id="OANpe9epuxXBcD9a5ZMN-29" style="edgeStyle=none;html=1;exitX=1;exitY=0.5;exitDx=0;exitDy=0;endArrow=none;endFill=0;endSize=12;entryX=0.633;entryY=0.633;entryDx=0;entryDy=0;entryPerimeter=0;" edge="1" parent="1" source="OANpe9epuxXBcD9a5ZMN-23" target="P4WgWhsRx0VuXNSD5w6V-1">
                    <mxGeometry relative="1" as="geometry">
                        <mxPoint x="515.67431640625" y="-239.6641387939453" as="targetPoint"/>
                    </mxGeometry>
                </mxCell>
                <mxCell id="OANpe9epuxXBcD9a5ZMN-30" style="edgeStyle=none;html=1;exitX=1;exitY=0.5;exitDx=0;exitDy=0;entryX=0.689;entryY=0.272;entryDx=0;entryDy=0;entryPerimeter=0;endArrow=none;endFill=0;endSize=12;" edge="1" parent="1" source="OANpe9epuxXBcD9a5ZMN-24" target="P4WgWhsRx0VuXNSD5w6V-1">
                    <mxGeometry relative="1" as="geometry"/>
                </mxCell>
                <mxCell id="OANpe9epuxXBcD9a5ZMN-31" style="edgeStyle=none;html=1;exitX=1;exitY=0.5;exitDx=0;exitDy=0;entryX=0.489;entryY=0.306;entryDx=0;entryDy=0;entryPerimeter=0;endArrow=none;endFill=0;endSize=12;" edge="1" parent="1" source="OANpe9epuxXBcD9a5ZMN-25" target="P4WgWhsRx0VuXNSD5w6V-1">
                    <mxGeometry relative="1" as="geometry"/>
                </mxCell>
                <mxCell id="OANpe9epuxXBcD9a5ZMN-32" style="edgeStyle=none;html=1;exitX=1;exitY=0.5;exitDx=0;exitDy=0;entryX=0.5;entryY=0.5;entryDx=0;entryDy=0;entryPerimeter=0;endArrow=none;endFill=0;endSize=12;" edge="1" parent="1" source="OANpe9epuxXBcD9a5ZMN-26" target="P4WgWhsRx0VuXNSD5w6V-1">
                    <mxGeometry relative="1" as="geometry"/>
                </mxCell>
                <mxCell id="OANpe9epuxXBcD9a5ZMN-33" style="edgeStyle=none;html=1;exitX=1;exitY=0.5;exitDx=0;exitDy=0;entryX=0.656;entryY=0.239;entryDx=0;entryDy=0;entryPerimeter=0;endArrow=none;endFill=0;endSize=12;" edge="1" parent="1" source="OANpe9epuxXBcD9a5ZMN-27" target="P4WgWhsRx0VuXNSD5w6V-1">
                    <mxGeometry relative="1" as="geometry"/>
                </mxCell>
            </root>
        </mxGraphModel>
    </diagram>
</mxfile>